<svg width="60" height="60" viewBox="0 0 60 60" fill="none" xmlns="http://www.w3.org/2000/svg">
<g filter="url(#filter0_d_0_39)">
<path fill-rule="evenodd" clip-rule="evenodd" d="M50 27.9999C50 39.0457 41.0457 48 30 48C18.9543 48 10 39.0457 10 27.9999C10 16.9543 18.9543 8 30 8C41.0457 8 50 16.9543 50 27.9999Z" fill="white"/>
</g>
<path fill-rule="evenodd" clip-rule="evenodd" d="M30.0001 38C24.486 38 20 33.514 20 28C20 22.486 24.486 18 30.0001 18C35.514 18 40 22.486 40 28C40 33.514 35.514 38 30.0001 38ZM38.4333 29.3694C38.1411 29.2771 35.7895 28.5757 33.1129 29.0042C34.2301 32.0743 34.6847 34.5746 34.7723 35.0942C36.6885 33.7985 38.0526 31.746 38.4333 29.3694ZM33.3361 35.8758C33.209 35.1264 32.7132 32.5146 31.514 29.3984C31.4952 29.4049 31.4764 29.4109 31.4576 29.4174C26.6399 31.0963 24.9105 34.4373 24.7567 34.7516C26.205 35.8809 28.0251 36.5546 29.9997 36.5546C31.1829 36.5546 32.3106 36.3126 33.3361 35.8758ZM23.6541 33.7239C23.8476 33.3927 26.1918 29.5112 30.597 28.0873C30.7083 28.0513 30.8205 28.0175 30.9336 27.9857C30.7191 27.5004 30.4856 27.0146 30.2411 26.5361C25.9755 27.8128 21.8363 27.7594 21.4626 27.7517C21.46 27.8384 21.4583 27.9253 21.4583 28.0127C21.4583 30.2065 22.2899 32.2095 23.6541 33.7239ZM21.6387 26.2643C22.0207 26.2693 25.5397 26.2846 29.5352 25.2236C28.1199 22.7077 26.5935 20.5925 26.3684 20.2837C23.9787 21.4108 22.1925 23.6137 21.6387 26.2643ZM27.9983 19.7087C28.2344 20.0248 29.7858 22.1374 31.1854 24.709C34.2227 23.5706 35.5085 21.8424 35.6621 21.6236C34.1537 20.2853 32.1702 19.4712 30 19.4712C29.3108 19.4712 28.6406 19.5539 27.9983 19.7087ZM36.6119 22.6118C36.4319 22.8554 35.0006 24.6903 31.8424 25.9797C32.0412 26.3865 32.2317 26.8003 32.4091 27.2169C32.4719 27.3645 32.5332 27.5114 32.5931 27.6577C35.4352 27.3003 38.2591 27.873 38.5408 27.9326C38.522 25.9166 37.8016 24.0653 36.6119 22.6118Z" fill="#2D2E2F"/>
<defs>
<filter id="filter0_d_0_39" x="0" y="0" width="60" height="60" filterUnits="userSpaceOnUse" color-interpolation-filters="sRGB">
<feFlood flood-opacity="0" result="BackgroundImageFix"/>
<feColorMatrix in="SourceAlpha" type="matrix" values="0 0 0 0 0 0 0 0 0 0 0 0 0 0 0 0 0 0 127 0" result="hardAlpha"/>
<feOffset dy="2"/>
<feGaussianBlur stdDeviation="5"/>
<feColorMatrix type="matrix" values="0 0 0 0 0 0 0 0 0 0 0 0 0 0 0 0 0 0 0.1 0"/>
<feBlend mode="normal" in2="BackgroundImageFix" result="effect1_dropShadow_0_39"/>
<feBlend mode="normal" in="SourceGraphic" in2="effect1_dropShadow_0_39" result="shape"/>
</filter>
</defs>
</svg>
