<svg width="238" height="52" viewBox="0 0 238 52" fill="none" xmlns="http://www.w3.org/2000/svg">
<path d="M59.996 8.0873H46.483L42.7643 1.64656C42.1601 0.600161 41.121 0 39.9126 0H26.3121C25.1043 0 24.0649 0.600161 23.4607 1.64656L19.7418 8.0873H18.6963V5.43922C18.6963 4.5457 17.9695 3.81891 17.076 3.81891H9.41127C8.51776 3.81891 7.79097 4.5457 7.79097 5.43922V8.0873H6.22861C2.79437 8.0873 0 10.8814 0 14.3156V43.7714C0 47.2058 2.79437 50 6.22861 50H59.9959C63.4303 50 66.2245 47.2056 66.2245 43.7714V14.3156C66.2246 10.8814 63.4303 8.0873 59.996 8.0873ZM9.58084 5.60879H16.9063V8.0873H9.58084V5.60879ZM6.22861 9.87717H20.2584C20.578 9.87717 20.8737 9.70644 21.0333 9.42977L25.0104 2.5415C25.2903 2.05671 25.7527 1.78988 26.312 1.78988H39.9125C40.4722 1.78988 40.9342 2.05671 41.2141 2.5415L45.1912 9.42977C45.3508 9.70657 45.6465 9.87717 45.9661 9.87717H59.9959C62.4435 9.87717 64.4348 11.8683 64.4348 14.3156V20.8773H46.7649C43.9808 16.2402 38.9036 13.1294 33.1122 13.1294C27.3208 13.1294 22.2437 16.2402 19.4594 20.8773H1.78988V14.3156C1.78988 11.8683 3.78101 9.87717 6.22861 9.87717ZM33.1123 14.9193C40.9004 14.9193 47.2365 21.2554 47.2365 29.0435C47.2365 36.8316 40.9004 43.1677 33.1123 43.1677C25.3242 43.1677 18.9881 36.8315 18.9881 29.0435C18.9881 21.2555 25.3242 14.9193 33.1123 14.9193ZM59.996 48.2103H6.22861C3.78101 48.2103 1.78975 46.2191 1.78975 43.7714V22.6672H18.5358C17.6778 24.6208 17.1981 26.7766 17.1981 29.0435C17.1981 37.8185 24.3372 44.9576 33.1122 44.9576C41.8872 44.9576 49.0263 37.8185 49.0263 29.0435C49.0263 26.7766 48.5467 24.6207 47.6887 22.6672H64.4348V43.7714C64.4348 46.2191 62.4436 48.2103 59.996 48.2103ZM32.2174 18.3488C32.2174 17.8544 32.618 17.4538 33.1123 17.4538C39.503 17.4538 44.7022 22.6532 44.7022 29.0439C44.7022 29.5383 44.3016 29.9388 43.8072 29.9388C43.3129 29.9388 42.9123 29.5383 42.9123 29.0439C42.9123 23.64 38.516 19.2437 33.1123 19.2437C32.618 19.2436 32.2174 18.8431 32.2174 18.3488ZM54.1169 18.483H58.9348C60.6472 18.483 62.0405 17.0896 62.0405 15.3773C62.0405 13.665 60.647 12.2716 58.9348 12.2716H54.1169C52.4045 12.2716 51.0112 13.665 51.0112 15.3773C51.0112 17.0896 52.4045 18.483 54.1169 18.483ZM54.1169 14.0614H58.9348C59.6604 14.0614 60.2506 14.6516 60.2506 15.3772C60.2506 16.1028 59.6604 16.693 58.9348 16.693H54.1169C53.3913 16.693 52.8011 16.1028 52.8011 15.3772C52.801 14.6516 53.3913 14.0614 54.1169 14.0614Z" fill="white"/>
<path d="M89.3125 7.38086C87.9648 7.38086 86.8164 7.86719 85.8672 8.83984C84.9121 9.81836 84.4346 10.9961 84.4346 12.373C84.4346 13.7441 84.9121 14.9189 85.8672 15.8975C86.8164 16.8701 87.9648 17.3564 89.3125 17.3564C90.1211 17.3564 90.8828 17.1631 91.5977 16.7764C92.3125 16.3896 92.8984 15.8535 93.3555 15.168C93.4785 14.9746 93.6514 14.8574 93.874 14.8164C93.9326 14.8047 93.9912 14.7988 94.0498 14.7988C94.208 14.7988 94.3545 14.8428 94.4893 14.9307C94.6826 15.0596 94.7998 15.2354 94.8408 15.458C94.8525 15.5166 94.8584 15.5752 94.8584 15.6338C94.8584 15.792 94.8145 15.9385 94.7266 16.0732C94.1172 16.9932 93.335 17.7109 92.3799 18.2266C91.4189 18.7422 90.3965 19 89.3125 19C87.5137 19 85.9785 18.3525 84.707 17.0576C83.4297 15.7627 82.791 14.2012 82.791 12.373C82.791 10.5391 83.4297 8.97461 84.707 7.67969C85.9785 6.37891 87.5137 5.72852 89.3125 5.72852C90.3965 5.72852 91.4189 5.98926 92.3799 6.51074C93.335 7.02637 94.1172 7.74414 94.7266 8.66406C94.8203 8.80469 94.8672 8.9541 94.8672 9.1123C94.8672 9.16504 94.8613 9.2207 94.8496 9.2793C94.8027 9.50195 94.6855 9.67773 94.498 9.80664C94.3574 9.89453 94.2109 9.93848 94.0586 9.93848C93.9941 9.93848 93.9326 9.93262 93.874 9.9209C93.6514 9.87988 93.4785 9.7627 93.3555 9.56934C92.8984 8.88379 92.3125 8.34766 91.5977 7.96094C90.8828 7.57422 90.1211 7.38086 89.3125 7.38086ZM114.395 5.68457C114.617 5.68457 114.811 5.7666 114.975 5.93066C115.133 6.08887 115.212 6.28223 115.212 6.51074V18.1738C115.212 18.4023 115.133 18.5957 114.975 18.7539C114.811 18.918 114.617 19 114.395 19C114.166 19 113.97 18.918 113.806 18.7539C113.648 18.5957 113.569 18.4023 113.569 18.1738V13.1465H108.875V18.1738C108.875 18.4023 108.796 18.5957 108.638 18.7539C108.474 18.918 108.28 19 108.058 19C107.829 19 107.633 18.918 107.469 18.7539C107.311 18.5957 107.232 18.4023 107.232 18.1738V6.51074C107.232 6.28223 107.311 6.08887 107.469 5.93066C107.633 5.7666 107.829 5.68457 108.058 5.68457C108.28 5.68457 108.474 5.7666 108.638 5.93066C108.796 6.08887 108.875 6.28223 108.875 6.51074V11.5029H113.569V6.51074C113.569 6.28223 113.648 6.08887 113.806 5.93066C113.97 5.7666 114.166 5.68457 114.395 5.68457ZM135.891 9.29688V9.50781C135.891 10.5684 135.598 11.4062 135.012 12.0215C134.444 12.6133 133.606 12.9766 132.498 13.1113L135.733 17.708C135.832 17.8545 135.882 18.0127 135.882 18.1826C135.882 18.2295 135.879 18.2764 135.873 18.3232C135.832 18.5459 135.721 18.7217 135.539 18.8506C135.393 18.9502 135.235 19 135.065 19C134.778 19 134.552 18.8857 134.388 18.6572L130.301 12.8389C130.196 12.6865 130.143 12.5312 130.143 12.373C130.143 12.2441 130.175 12.1152 130.24 11.9863C130.392 11.6934 130.635 11.5469 130.969 11.5469C132.446 11.5469 133.398 11.3242 133.826 10.8789C134.107 10.5859 134.247 10.1289 134.247 9.50781V9.3584C134.224 8.8252 134.078 8.37988 133.808 8.02246C133.48 7.59473 133.02 7.38086 132.428 7.38086H129.765V18.1826C129.765 18.4111 129.686 18.6045 129.528 18.7627C129.364 18.9209 129.17 19 128.948 19C128.719 19 128.523 18.9209 128.359 18.7627C128.201 18.6045 128.121 18.4111 128.121 18.1826V6.55469C128.121 6.32617 128.201 6.13281 128.359 5.97461C128.523 5.81055 128.719 5.72852 128.948 5.72852H132.428C133.495 5.72852 134.35 6.10937 134.995 6.87109C135.557 7.5332 135.856 8.3418 135.891 9.29688ZM148.923 5.68457C149.146 5.68457 149.339 5.7666 149.504 5.93066C149.662 6.08887 149.741 6.28223 149.741 6.51074V18.1738C149.741 18.4023 149.662 18.5957 149.504 18.7539C149.339 18.918 149.146 19 148.923 19C148.695 19 148.499 18.918 148.335 18.7539C148.176 18.5957 148.097 18.4023 148.097 18.1738V6.51074C148.097 6.28223 148.176 6.08887 148.335 5.93066C148.499 5.7666 148.695 5.68457 148.923 5.68457ZM166.342 19C165.469 19 164.654 18.748 163.898 18.2441C163.142 17.7344 162.603 17.0811 162.281 16.2842C162.199 16.0791 162.199 15.877 162.281 15.6777C162.369 15.4785 162.512 15.3379 162.712 15.2559C162.917 15.1738 163.119 15.1768 163.318 15.2646C163.517 15.3525 163.658 15.4961 163.74 15.6953C163.945 16.2051 164.288 16.6211 164.768 16.9434C165.255 17.2656 165.779 17.4268 166.342 17.4268C167.004 17.4268 167.566 17.2188 168.029 16.8027C168.498 16.3809 168.732 15.877 168.732 15.291C168.732 14.6582 168.53 14.1895 168.126 13.8848C167.798 13.6387 167.13 13.3779 166.122 13.1025C164.973 12.7861 164.153 12.4492 163.661 12.0918C162.805 11.4766 162.378 10.5918 162.378 9.4375C162.378 8.41797 162.764 7.54492 163.538 6.81836C164.317 6.0918 165.252 5.72852 166.342 5.72852C167.262 5.72852 168.07 5.99219 168.767 6.51953C169.471 7.04688 169.951 7.75 170.209 8.62891C170.267 8.83984 170.247 9.03906 170.147 9.22656C170.042 9.41992 169.884 9.5459 169.673 9.60449C169.468 9.66309 169.268 9.64258 169.075 9.54297C168.887 9.4375 168.762 9.2793 168.697 9.06836C168.539 8.52344 168.249 8.09277 167.827 7.77637C167.405 7.45996 166.91 7.30176 166.342 7.30176C165.685 7.30176 165.123 7.50977 164.654 7.92578C164.185 8.34766 163.951 8.85156 163.951 9.4375C163.951 10.0527 164.153 10.5098 164.557 10.8086C164.88 11.0488 165.539 11.3066 166.535 11.582C167.695 11.9043 168.524 12.2441 169.022 12.6016C169.878 13.2227 170.305 14.1191 170.305 15.291C170.305 16.3105 169.919 17.1836 169.145 17.9102C168.372 18.6367 167.437 19 166.342 19Z" fill="white"/>
<path d="M83.9336 41.9795V47.5605C83.9336 47.6836 83.8896 47.7861 83.8018 47.8682C83.7197 47.9561 83.6172 48 83.4941 48C83.3711 48 83.2686 47.9561 83.1865 47.8682C83.0986 47.7861 83.0547 47.6836 83.0547 47.5605V35.1592C83.0547 35.0361 83.0986 34.9336 83.1865 34.8516C83.2686 34.7637 83.3711 34.7197 83.4941 34.7197H87.2031C88.0996 34.7197 88.8643 35.0742 89.4971 35.7832C90.1299 36.4922 90.4463 37.3477 90.4463 38.3496C90.4463 39.3516 90.1299 40.207 89.4971 40.916C88.8643 41.625 88.0996 41.9795 87.2031 41.9795H83.9336ZM87.2031 41.1006C87.8594 41.1006 88.416 40.834 88.873 40.3008C89.3359 39.7617 89.5674 39.1113 89.5674 38.3496C89.5674 37.5938 89.3359 36.9463 88.873 36.4072C88.416 35.8682 87.8594 35.5986 87.2031 35.5986H83.9336V41.1006H87.2031ZM104.391 34.7197C104.508 34.7197 104.611 34.7637 104.699 34.8516C104.787 34.9336 104.83 35.0361 104.83 35.1592V47.5605C104.83 47.6836 104.787 47.7891 104.699 47.877C104.611 47.959 104.508 48 104.391 48C104.268 48 104.165 47.959 104.083 47.877C103.996 47.7891 103.952 47.6836 103.952 47.5605V41.7773H96.3402V47.5605C96.3402 47.6836 96.2963 47.7891 96.2084 47.877C96.1264 47.959 96.0238 48 95.9008 48C95.7777 48 95.6752 47.959 95.5932 47.877C95.5053 47.7891 95.4613 47.6836 95.4613 47.5605V35.1592C95.4613 35.0361 95.5053 34.9336 95.5932 34.8516C95.6752 34.7637 95.7777 34.7197 95.9008 34.7197C96.0238 34.7197 96.1264 34.7637 96.2084 34.8516C96.2963 34.9336 96.3402 35.0361 96.3402 35.1592V40.9072H103.952V35.1592C103.952 35.0361 103.996 34.9336 104.083 34.8516C104.165 34.7637 104.268 34.7197 104.391 34.7197ZM116.358 47.1211C117.911 47.1211 119.238 46.5586 120.34 45.4336C121.441 44.3086 121.992 42.9492 121.992 41.3555C121.992 39.7676 121.441 38.4111 120.34 37.2861C119.238 36.1611 117.911 35.5986 116.358 35.5986C114.8 35.5986 113.47 36.1611 112.368 37.2861C111.266 38.4111 110.716 39.7676 110.716 41.3555C110.716 42.9492 111.266 44.3086 112.368 45.4336C113.47 46.5586 114.8 47.1211 116.358 47.1211ZM116.358 34.7197C118.151 34.7197 119.686 35.3701 120.964 36.6709C122.235 37.9658 122.871 39.5273 122.871 41.3555C122.871 43.1895 122.235 44.7539 120.964 46.0488C119.686 47.3496 118.151 48 116.358 48C114.559 48 113.021 47.3496 111.744 46.0488C110.472 44.7539 109.837 43.1895 109.837 41.3555C109.837 39.5273 110.472 37.9658 111.744 36.6709C113.021 35.3701 114.559 34.7197 116.358 34.7197ZM135.146 34.7197C135.269 34.7197 135.371 34.7637 135.453 34.8516C135.541 34.9336 135.585 35.0361 135.585 35.1592C135.585 35.2822 135.541 35.3848 135.453 35.4668C135.371 35.5547 135.269 35.5986 135.146 35.5986H131.683V47.5605C131.683 47.6836 131.642 47.7891 131.56 47.877C131.472 47.959 131.369 48 131.252 48C131.135 48 131.032 47.959 130.945 47.877C130.857 47.7891 130.813 47.6836 130.813 47.5605V35.5986H127.359C127.236 35.5986 127.133 35.5547 127.051 35.4668C126.963 35.3848 126.919 35.2822 126.919 35.1592C126.919 35.0361 126.963 34.9336 127.051 34.8516C127.133 34.7637 127.236 34.7197 127.359 34.7197H135.146ZM146.146 47.1211C147.699 47.1211 149.026 46.5586 150.128 45.4336C151.229 44.3086 151.78 42.9492 151.78 41.3555C151.78 39.7676 151.229 38.4111 150.128 37.2861C149.026 36.1611 147.699 35.5986 146.146 35.5986C144.588 35.5986 143.257 36.1611 142.156 37.2861C141.054 38.4111 140.504 39.7676 140.504 41.3555C140.504 42.9492 141.054 44.3086 142.156 45.4336C143.257 46.5586 144.588 47.1211 146.146 47.1211ZM146.146 34.7197C147.939 34.7197 149.474 35.3701 150.752 36.6709C152.023 37.9658 152.659 39.5273 152.659 41.3555C152.659 43.1895 152.023 44.7539 150.752 46.0488C149.474 47.3496 147.939 48 146.146 48C144.347 48 142.809 47.3496 141.532 46.0488C140.26 44.7539 139.625 43.1895 139.625 41.3555C139.625 39.5273 140.26 37.9658 141.532 36.6709C142.809 35.3701 144.347 34.7197 146.146 34.7197ZM169.205 41.1885C169.328 41.1885 169.431 41.2295 169.513 41.3115C169.601 41.3994 169.645 41.502 169.645 41.6191V44.1855C169.645 45.3867 168.974 46.3506 167.632 47.0771C166.495 47.6924 165.215 48 163.791 48C161.998 48 160.463 47.3496 159.186 46.0488C157.914 44.7539 157.278 43.1895 157.278 41.3555C157.278 39.5273 157.914 37.9658 159.186 36.6709C160.463 35.3701 161.998 34.7197 163.791 34.7197C165.021 34.7197 166.158 35.0449 167.201 35.6953C168.238 36.3398 169.038 37.2217 169.601 38.3408C169.63 38.4053 169.645 38.4697 169.645 38.5342C169.645 38.5811 169.639 38.6279 169.627 38.6748C169.586 38.7861 169.513 38.8711 169.407 38.9297C169.343 38.959 169.278 38.9736 169.214 38.9736C169.167 38.9736 169.117 38.9648 169.064 38.9473C168.953 38.9121 168.871 38.8418 168.818 38.7363C168.332 37.7695 167.638 37.0049 166.735 36.4424C165.839 35.8799 164.857 35.5986 163.791 35.5986C162.238 35.5986 160.911 36.1611 159.81 37.2861C158.708 38.4111 158.157 39.7676 158.157 41.3555C158.157 42.9434 158.708 44.3027 159.81 45.4336C160.911 46.5586 162.238 47.1211 163.791 47.1211C164.969 47.1211 166.05 46.8809 167.034 46.4004C168.188 45.8379 168.766 45.0996 168.766 44.1855V42.0586H164.134C164.011 42.0586 163.908 42.0176 163.826 41.9355C163.738 41.8477 163.694 41.7422 163.694 41.6191C163.694 41.502 163.738 41.3994 163.826 41.3115C163.908 41.2295 164.011 41.1885 164.134 41.1885H169.205ZM181.937 48C181.802 48 181.691 47.9473 181.603 47.8418L176.356 41.6455C176.28 41.5576 176.242 41.4639 176.242 41.3643C176.242 41.3057 176.256 41.2441 176.286 41.1797C176.368 41.0098 176.502 40.9248 176.69 40.9248C178.823 40.9248 180.238 40.5615 180.935 39.835C181.316 39.4365 181.506 38.9062 181.506 38.2441V38.1299C181.477 37.4385 181.272 36.8584 180.891 36.3896C180.452 35.8623 179.863 35.5986 179.124 35.5986H175.846V47.5605C175.846 47.6836 175.802 47.7861 175.714 47.8682C175.632 47.9561 175.53 48 175.407 48C175.284 48 175.181 47.9561 175.099 47.8682C175.011 47.7861 174.967 47.6836 174.967 47.5605V35.1592C174.967 35.0361 175.011 34.9336 175.099 34.8516C175.181 34.7637 175.284 34.7197 175.407 34.7197H179.124C180.126 34.7197 180.929 35.0801 181.533 35.8008C182.066 36.4277 182.35 37.1924 182.385 38.0947V38.2617C182.385 39.1523 182.113 39.8818 181.568 40.4502C180.8 41.2412 179.482 41.6836 177.613 41.7773L182.271 47.2793C182.341 47.3672 182.376 47.4639 182.376 47.5693V47.5957C182.365 47.7188 182.312 47.8184 182.218 47.8945C182.136 47.9648 182.042 48 181.937 48ZM194.344 42.709L191.777 36.3369L189.22 42.709H194.344ZM197.174 47.3936C197.197 47.4463 197.209 47.502 197.209 47.5605C197.209 47.6191 197.197 47.6777 197.174 47.7363C197.127 47.8477 197.048 47.9238 196.936 47.9648C196.884 47.9883 196.828 48 196.769 48C196.681 48 196.599 47.9766 196.523 47.9297C196.447 47.877 196.394 47.8096 196.365 47.7275L194.695 43.5791H188.868L187.198 47.7275C187.157 47.8389 187.081 47.918 186.97 47.9648C186.917 47.9883 186.861 48 186.803 48C186.744 48 186.685 47.9883 186.627 47.9648C186.515 47.9238 186.436 47.8477 186.389 47.7363C186.366 47.6777 186.354 47.6191 186.354 47.5605C186.354 47.502 186.366 47.4463 186.389 47.3936L191.373 34.9922C191.408 34.9102 191.464 34.8457 191.54 34.7988C191.61 34.7461 191.689 34.7197 191.777 34.7197C191.871 34.7197 191.953 34.7461 192.023 34.7988C192.099 34.8457 192.155 34.9102 192.19 34.9922L197.174 47.3936ZM202.874 41.9795V47.5605C202.874 47.6836 202.83 47.7861 202.742 47.8682C202.66 47.9561 202.558 48 202.435 48C202.312 48 202.209 47.9561 202.127 47.8682C202.039 47.7861 201.995 47.6836 201.995 47.5605V35.1592C201.995 35.0361 202.039 34.9336 202.127 34.8516C202.209 34.7637 202.312 34.7197 202.435 34.7197H206.144C207.04 34.7197 207.805 35.0742 208.438 35.7832C209.071 36.4922 209.387 37.3477 209.387 38.3496C209.387 39.3516 209.071 40.207 208.438 40.916C207.805 41.625 207.04 41.9795 206.144 41.9795H202.874ZM206.144 41.1006C206.8 41.1006 207.357 40.834 207.814 40.3008C208.277 39.7617 208.508 39.1113 208.508 38.3496C208.508 37.5938 208.277 36.9463 207.814 36.4072C207.357 35.8682 206.8 35.5986 206.144 35.5986H202.874V41.1006H206.144ZM223.332 34.7197C223.449 34.7197 223.551 34.7637 223.639 34.8516C223.727 34.9336 223.771 35.0361 223.771 35.1592V47.5605C223.771 47.6836 223.727 47.7891 223.639 47.877C223.551 47.959 223.449 48 223.332 48C223.209 48 223.106 47.959 223.024 47.877C222.936 47.7891 222.892 47.6836 222.892 47.5605V41.7773H215.281V47.5605C215.281 47.6836 215.237 47.7891 215.149 47.877C215.067 47.959 214.964 48 214.841 48C214.718 48 214.616 47.959 214.534 47.877C214.446 47.7891 214.402 47.6836 214.402 47.5605V35.1592C214.402 35.0361 214.446 34.9336 214.534 34.8516C214.616 34.7637 214.718 34.7197 214.841 34.7197C214.964 34.7197 215.067 34.7637 215.149 34.8516C215.237 34.9336 215.281 35.0361 215.281 35.1592V40.9072H222.892V35.1592C222.892 35.0361 222.936 34.9336 223.024 34.8516C223.106 34.7637 223.209 34.7197 223.332 34.7197ZM236.986 34.7637C237.092 34.8164 237.165 34.9014 237.206 35.0186C237.224 35.0654 237.232 35.1152 237.232 35.168C237.232 35.2266 237.218 35.2881 237.188 35.3525L233.312 43.3506V47.5605C233.312 47.6836 233.269 47.7861 233.181 47.8682C233.093 47.9561 232.99 48 232.873 48C232.75 48 232.645 47.9561 232.557 47.8682C232.475 47.7861 232.434 47.6836 232.434 47.5605V43.3506L228.558 35.3525C228.528 35.2881 228.514 35.2266 228.514 35.168C228.514 35.1152 228.522 35.0654 228.54 35.0186C228.581 34.9014 228.654 34.8164 228.76 34.7637C228.824 34.7344 228.886 34.7197 228.944 34.7197C228.997 34.7197 229.047 34.7285 229.094 34.7461C229.211 34.7871 229.296 34.8604 229.349 34.9658L232.873 42.2432L236.397 34.9658C236.45 34.8604 236.535 34.7871 236.652 34.7461C236.699 34.7285 236.749 34.7197 236.802 34.7197C236.86 34.7197 236.922 34.7344 236.986 34.7637Z" fill="white"/>
</svg>
