<svg width="40" height="40" viewBox="0 0 40 40" fill="none" xmlns="http://www.w3.org/2000/svg">
<path fill-rule="evenodd" clip-rule="evenodd" d="M20 40C31.0457 40 40 31.0457 40 20C40 8.9543 31.0457 0 20 0C8.9543 0 0 8.9543 0 20C0 31.0457 8.9543 40 20 40Z" fill="#E1E1E1"/>
<path d="M21.6166 29.367C21.183 29.773 20.6034 30 20.0002 30C19.3969 30 18.8174 29.773 18.3837 29.367C14.4127 25.626 9.09096 21.4469 11.6862 15.3797C13.0894 12.0992 16.4578 10 20.0002 10C23.5426 10 26.911 12.0992 28.3142 15.3797C30.9061 21.4393 25.5975 25.6389 21.6166 29.367Z" fill="#2D2E2F" stroke="#E1E1E1" stroke-width="1.5"/>
<path d="M23.4988 19C23.4988 20.933 21.932 22.5 19.9992 22.5C18.0663 22.5 16.4995 20.933 16.4995 19C16.4995 17.067 18.0663 15.5 19.9992 15.5C21.932 15.5 23.4988 17.067 23.4988 19Z" fill="#2D2E2F" stroke="#E1E1E1" stroke-width="1.5"/>
</svg>
