<svg width="236" height="54" viewBox="0 0 236 54" fill="none" xmlns="http://www.w3.org/2000/svg">
<path d="M59.996 8.0873H46.483L42.7643 1.64656C42.1601 0.600161 41.121 0 39.9126 0H26.3121C25.1043 0 24.0649 0.600161 23.4607 1.64656L19.7418 8.0873H18.6963V5.43922C18.6963 4.5457 17.9695 3.81891 17.076 3.81891H9.41127C8.51776 3.81891 7.79097 4.5457 7.79097 5.43922V8.0873H6.22861C2.79437 8.0873 0 10.8814 0 14.3156V43.7714C0 47.2058 2.79437 50 6.22861 50H59.9959C63.4303 50 66.2245 47.2056 66.2245 43.7714V14.3156C66.2246 10.8814 63.4303 8.0873 59.996 8.0873ZM9.58084 5.60879H16.9063V8.0873H9.58084V5.60879ZM6.22861 9.87717H20.2584C20.578 9.87717 20.8737 9.70644 21.0333 9.42977L25.0104 2.5415C25.2903 2.05671 25.7527 1.78988 26.312 1.78988H39.9125C40.4722 1.78988 40.9342 2.05671 41.2141 2.5415L45.1912 9.42977C45.3508 9.70657 45.6465 9.87717 45.9661 9.87717H59.9959C62.4435 9.87717 64.4348 11.8683 64.4348 14.3156V20.8773H46.7649C43.9808 16.2402 38.9036 13.1294 33.1122 13.1294C27.3208 13.1294 22.2437 16.2402 19.4594 20.8773H1.78988V14.3156C1.78988 11.8683 3.78101 9.87717 6.22861 9.87717ZM33.1123 14.9193C40.9004 14.9193 47.2365 21.2554 47.2365 29.0435C47.2365 36.8316 40.9004 43.1677 33.1123 43.1677C25.3242 43.1677 18.9881 36.8315 18.9881 29.0435C18.9881 21.2555 25.3242 14.9193 33.1123 14.9193ZM59.996 48.2103H6.22861C3.78101 48.2103 1.78975 46.2191 1.78975 43.7714V22.6672H18.5358C17.6778 24.6208 17.1981 26.7766 17.1981 29.0435C17.1981 37.8185 24.3372 44.9576 33.1122 44.9576C41.8872 44.9576 49.0263 37.8185 49.0263 29.0435C49.0263 26.7766 48.5467 24.6207 47.6887 22.6672H64.4348V43.7714C64.4348 46.2191 62.4436 48.2103 59.996 48.2103ZM32.2174 18.3488C32.2174 17.8544 32.618 17.4538 33.1123 17.4538C39.503 17.4538 44.7022 22.6532 44.7022 29.0439C44.7022 29.5383 44.3016 29.9388 43.8072 29.9388C43.3129 29.9388 42.9123 29.5383 42.9123 29.0439C42.9123 23.64 38.516 19.2437 33.1123 19.2437C32.618 19.2436 32.2174 18.8431 32.2174 18.3488ZM54.1169 18.483H58.9348C60.6472 18.483 62.0405 17.0896 62.0405 15.3773C62.0405 13.665 60.647 12.2716 58.9348 12.2716H54.1169C52.4045 12.2716 51.0112 13.665 51.0112 15.3773C51.0112 17.0896 52.4045 18.483 54.1169 18.483ZM54.1169 14.0614H58.9348C59.6604 14.0614 60.2506 14.6516 60.2506 15.3772C60.2506 16.1028 59.6604 16.693 58.9348 16.693H54.1169C53.3913 16.693 52.8011 16.1028 52.8011 15.3772C52.801 14.6516 53.3913 14.0614 54.1169 14.0614Z" fill="black"/>
<path d="M87.3125 9.38086C85.9648 9.38086 84.8164 9.86719 83.8672 10.8398C82.9121 11.8184 82.4346 12.9961 82.4346 14.373C82.4346 15.7441 82.9121 16.9189 83.8672 17.8975C84.8164 18.8701 85.9648 19.3564 87.3125 19.3564C88.1211 19.3564 88.8828 19.1631 89.5977 18.7764C90.3125 18.3896 90.8984 17.8535 91.3555 17.168C91.4785 16.9746 91.6514 16.8574 91.874 16.8164C91.9326 16.8047 91.9912 16.7988 92.0498 16.7988C92.208 16.7988 92.3545 16.8428 92.4893 16.9307C92.6826 17.0596 92.7998 17.2354 92.8408 17.458C92.8525 17.5166 92.8584 17.5752 92.8584 17.6338C92.8584 17.792 92.8145 17.9385 92.7266 18.0732C92.1172 18.9932 91.335 19.7109 90.3799 20.2266C89.4189 20.7422 88.3965 21 87.3125 21C85.5137 21 83.9785 20.3525 82.707 19.0576C81.4297 17.7627 80.791 16.2012 80.791 14.373C80.791 12.5391 81.4297 10.9746 82.707 9.67969C83.9785 8.37891 85.5137 7.72852 87.3125 7.72852C88.3965 7.72852 89.4189 7.98926 90.3799 8.51074C91.335 9.02637 92.1172 9.74414 92.7266 10.6641C92.8203 10.8047 92.8672 10.9541 92.8672 11.1123C92.8672 11.165 92.8613 11.2207 92.8496 11.2793C92.8027 11.502 92.6855 11.6777 92.498 11.8066C92.3574 11.8945 92.2109 11.9385 92.0586 11.9385C91.9941 11.9385 91.9326 11.9326 91.874 11.9209C91.6514 11.8799 91.4785 11.7627 91.3555 11.5693C90.8984 10.8838 90.3125 10.3477 89.5977 9.96094C88.8828 9.57422 88.1211 9.38086 87.3125 9.38086ZM112.395 7.68457C112.617 7.68457 112.811 7.7666 112.975 7.93066C113.133 8.08887 113.212 8.28223 113.212 8.51074V20.1738C113.212 20.4023 113.133 20.5957 112.975 20.7539C112.811 20.918 112.617 21 112.395 21C112.166 21 111.97 20.918 111.806 20.7539C111.648 20.5957 111.569 20.4023 111.569 20.1738V15.1465H106.875V20.1738C106.875 20.4023 106.796 20.5957 106.638 20.7539C106.474 20.918 106.28 21 106.058 21C105.829 21 105.633 20.918 105.469 20.7539C105.311 20.5957 105.232 20.4023 105.232 20.1738V8.51074C105.232 8.28223 105.311 8.08887 105.469 7.93066C105.633 7.7666 105.829 7.68457 106.058 7.68457C106.28 7.68457 106.474 7.7666 106.638 7.93066C106.796 8.08887 106.875 8.28223 106.875 8.51074V13.5029H111.569V8.51074C111.569 8.28223 111.648 8.08887 111.806 7.93066C111.97 7.7666 112.166 7.68457 112.395 7.68457ZM133.891 11.2969V11.5078C133.891 12.5684 133.598 13.4062 133.012 14.0215C132.444 14.6133 131.606 14.9766 130.498 15.1113L133.733 19.708C133.832 19.8545 133.882 20.0127 133.882 20.1826C133.882 20.2295 133.879 20.2764 133.873 20.3232C133.832 20.5459 133.721 20.7217 133.539 20.8506C133.393 20.9502 133.235 21 133.065 21C132.778 21 132.552 20.8857 132.388 20.6572L128.301 14.8389C128.196 14.6865 128.143 14.5312 128.143 14.373C128.143 14.2441 128.175 14.1152 128.24 13.9863C128.392 13.6934 128.635 13.5469 128.969 13.5469C130.446 13.5469 131.398 13.3242 131.826 12.8789C132.107 12.5859 132.247 12.1289 132.247 11.5078V11.3584C132.224 10.8252 132.078 10.3799 131.808 10.0225C131.48 9.59473 131.02 9.38086 130.428 9.38086H127.765V20.1826C127.765 20.4111 127.686 20.6045 127.528 20.7627C127.364 20.9209 127.17 21 126.948 21C126.719 21 126.523 20.9209 126.359 20.7627C126.201 20.6045 126.121 20.4111 126.121 20.1826V8.55469C126.121 8.32617 126.201 8.13281 126.359 7.97461C126.523 7.81055 126.719 7.72852 126.948 7.72852H130.428C131.495 7.72852 132.35 8.10938 132.995 8.87109C133.557 9.5332 133.856 10.3418 133.891 11.2969ZM146.923 7.68457C147.146 7.68457 147.339 7.7666 147.504 7.93066C147.662 8.08887 147.741 8.28223 147.741 8.51074V20.1738C147.741 20.4023 147.662 20.5957 147.504 20.7539C147.339 20.918 147.146 21 146.923 21C146.695 21 146.499 20.918 146.335 20.7539C146.176 20.5957 146.097 20.4023 146.097 20.1738V8.51074C146.097 8.28223 146.176 8.08887 146.335 7.93066C146.499 7.7666 146.695 7.68457 146.923 7.68457ZM164.342 21C163.469 21 162.654 20.748 161.898 20.2441C161.142 19.7344 160.603 19.0811 160.281 18.2842C160.199 18.0791 160.199 17.877 160.281 17.6777C160.369 17.4785 160.512 17.3379 160.712 17.2559C160.917 17.1738 161.119 17.1768 161.318 17.2646C161.517 17.3525 161.658 17.4961 161.74 17.6953C161.945 18.2051 162.288 18.6211 162.768 18.9434C163.255 19.2656 163.779 19.4268 164.342 19.4268C165.004 19.4268 165.566 19.2188 166.029 18.8027C166.498 18.3809 166.732 17.877 166.732 17.291C166.732 16.6582 166.53 16.1895 166.126 15.8848C165.798 15.6387 165.13 15.3779 164.122 15.1025C162.973 14.7861 162.153 14.4492 161.661 14.0918C160.805 13.4766 160.378 12.5918 160.378 11.4375C160.378 10.418 160.764 9.54492 161.538 8.81836C162.317 8.0918 163.252 7.72852 164.342 7.72852C165.262 7.72852 166.07 7.99219 166.767 8.51953C167.471 9.04688 167.951 9.75 168.209 10.6289C168.267 10.8398 168.247 11.0391 168.147 11.2266C168.042 11.4199 167.884 11.5459 167.673 11.6045C167.468 11.6631 167.268 11.6426 167.075 11.543C166.887 11.4375 166.762 11.2793 166.697 11.0684C166.539 10.5234 166.249 10.0928 165.827 9.77637C165.405 9.45996 164.91 9.30176 164.342 9.30176C163.685 9.30176 163.123 9.50977 162.654 9.92578C162.185 10.3477 161.951 10.8516 161.951 11.4375C161.951 12.0527 162.153 12.5098 162.557 12.8086C162.88 13.0488 163.539 13.3066 164.535 13.582C165.695 13.9043 166.524 14.2441 167.022 14.6016C167.878 15.2227 168.305 16.1191 168.305 17.291C168.305 18.3105 167.919 19.1836 167.145 19.9102C166.372 20.6367 165.437 21 164.342 21Z" fill="#2D2E2F"/>
<path d="M81.9336 43.9795V49.5605C81.9336 49.6836 81.8896 49.7861 81.8018 49.8682C81.7197 49.9561 81.6172 50 81.4941 50C81.3711 50 81.2686 49.9561 81.1865 49.8682C81.0986 49.7861 81.0547 49.6836 81.0547 49.5605V37.1592C81.0547 37.0361 81.0986 36.9336 81.1865 36.8516C81.2686 36.7637 81.3711 36.7197 81.4941 36.7197H85.2031C86.0996 36.7197 86.8643 37.0742 87.4971 37.7832C88.1299 38.4922 88.4463 39.3477 88.4463 40.3496C88.4463 41.3516 88.1299 42.207 87.4971 42.916C86.8643 43.625 86.0996 43.9795 85.2031 43.9795H81.9336ZM85.2031 43.1006C85.8594 43.1006 86.416 42.834 86.873 42.3008C87.3359 41.7617 87.5674 41.1113 87.5674 40.3496C87.5674 39.5938 87.3359 38.9463 86.873 38.4072C86.416 37.8682 85.8594 37.5986 85.2031 37.5986H81.9336V43.1006H85.2031ZM102.391 36.7197C102.508 36.7197 102.611 36.7637 102.699 36.8516C102.787 36.9336 102.83 37.0361 102.83 37.1592V49.5605C102.83 49.6836 102.787 49.7891 102.699 49.877C102.611 49.959 102.508 50 102.391 50C102.268 50 102.165 49.959 102.083 49.877C101.996 49.7891 101.952 49.6836 101.952 49.5605V43.7773H94.3402V49.5605C94.3402 49.6836 94.2963 49.7891 94.2084 49.877C94.1264 49.959 94.0238 50 93.9008 50C93.7777 50 93.6752 49.959 93.5932 49.877C93.5053 49.7891 93.4613 49.6836 93.4613 49.5605V37.1592C93.4613 37.0361 93.5053 36.9336 93.5932 36.8516C93.6752 36.7637 93.7777 36.7197 93.9008 36.7197C94.0238 36.7197 94.1264 36.7637 94.2084 36.8516C94.2963 36.9336 94.3402 37.0361 94.3402 37.1592V42.9072H101.952V37.1592C101.952 37.0361 101.996 36.9336 102.083 36.8516C102.165 36.7637 102.268 36.7197 102.391 36.7197ZM114.358 49.1211C115.911 49.1211 117.238 48.5586 118.34 47.4336C119.441 46.3086 119.992 44.9492 119.992 43.3555C119.992 41.7676 119.441 40.4111 118.34 39.2861C117.238 38.1611 115.911 37.5986 114.358 37.5986C112.8 37.5986 111.47 38.1611 110.368 39.2861C109.266 40.4111 108.716 41.7676 108.716 43.3555C108.716 44.9492 109.266 46.3086 110.368 47.4336C111.47 48.5586 112.8 49.1211 114.358 49.1211ZM114.358 36.7197C116.151 36.7197 117.686 37.3701 118.964 38.6709C120.235 39.9658 120.871 41.5273 120.871 43.3555C120.871 45.1895 120.235 46.7539 118.964 48.0488C117.686 49.3496 116.151 50 114.358 50C112.559 50 111.021 49.3496 109.744 48.0488C108.472 46.7539 107.837 45.1895 107.837 43.3555C107.837 41.5273 108.472 39.9658 109.744 38.6709C111.021 37.3701 112.559 36.7197 114.358 36.7197ZM133.146 36.7197C133.269 36.7197 133.371 36.7637 133.453 36.8516C133.541 36.9336 133.585 37.0361 133.585 37.1592C133.585 37.2822 133.541 37.3848 133.453 37.4668C133.371 37.5547 133.269 37.5986 133.146 37.5986H129.683V49.5605C129.683 49.6836 129.642 49.7891 129.56 49.877C129.472 49.959 129.369 50 129.252 50C129.135 50 129.032 49.959 128.945 49.877C128.857 49.7891 128.813 49.6836 128.813 49.5605V37.5986H125.359C125.236 37.5986 125.133 37.5547 125.051 37.4668C124.963 37.3848 124.919 37.2822 124.919 37.1592C124.919 37.0361 124.963 36.9336 125.051 36.8516C125.133 36.7637 125.236 36.7197 125.359 36.7197H133.146ZM144.146 49.1211C145.699 49.1211 147.026 48.5586 148.128 47.4336C149.229 46.3086 149.78 44.9492 149.78 43.3555C149.78 41.7676 149.229 40.4111 148.128 39.2861C147.026 38.1611 145.699 37.5986 144.146 37.5986C142.588 37.5986 141.257 38.1611 140.156 39.2861C139.054 40.4111 138.504 41.7676 138.504 43.3555C138.504 44.9492 139.054 46.3086 140.156 47.4336C141.257 48.5586 142.588 49.1211 144.146 49.1211ZM144.146 36.7197C145.939 36.7197 147.474 37.3701 148.752 38.6709C150.023 39.9658 150.659 41.5273 150.659 43.3555C150.659 45.1895 150.023 46.7539 148.752 48.0488C147.474 49.3496 145.939 50 144.146 50C142.347 50 140.809 49.3496 139.532 48.0488C138.26 46.7539 137.625 45.1895 137.625 43.3555C137.625 41.5273 138.26 39.9658 139.532 38.6709C140.809 37.3701 142.347 36.7197 144.146 36.7197ZM167.205 43.1885C167.328 43.1885 167.431 43.2295 167.513 43.3115C167.601 43.3994 167.645 43.502 167.645 43.6191V46.1855C167.645 47.3867 166.974 48.3506 165.632 49.0771C164.495 49.6924 163.215 50 161.791 50C159.998 50 158.463 49.3496 157.186 48.0488C155.914 46.7539 155.278 45.1895 155.278 43.3555C155.278 41.5273 155.914 39.9658 157.186 38.6709C158.463 37.3701 159.998 36.7197 161.791 36.7197C163.021 36.7197 164.158 37.0449 165.201 37.6953C166.238 38.3398 167.038 39.2217 167.601 40.3408C167.63 40.4053 167.645 40.4697 167.645 40.5342C167.645 40.5811 167.639 40.6279 167.627 40.6748C167.586 40.7861 167.513 40.8711 167.407 40.9297C167.343 40.959 167.278 40.9736 167.214 40.9736C167.167 40.9736 167.117 40.9648 167.064 40.9473C166.953 40.9121 166.871 40.8418 166.818 40.7363C166.332 39.7695 165.638 39.0049 164.735 38.4424C163.839 37.8799 162.857 37.5986 161.791 37.5986C160.238 37.5986 158.911 38.1611 157.81 39.2861C156.708 40.4111 156.157 41.7676 156.157 43.3555C156.157 44.9434 156.708 46.3027 157.81 47.4336C158.911 48.5586 160.238 49.1211 161.791 49.1211C162.969 49.1211 164.05 48.8809 165.034 48.4004C166.188 47.8379 166.766 47.0996 166.766 46.1855V44.0586H162.134C162.011 44.0586 161.908 44.0176 161.826 43.9355C161.738 43.8477 161.694 43.7422 161.694 43.6191C161.694 43.502 161.738 43.3994 161.826 43.3115C161.908 43.2295 162.011 43.1885 162.134 43.1885H167.205ZM179.937 50C179.802 50 179.691 49.9473 179.603 49.8418L174.356 43.6455C174.28 43.5576 174.242 43.4639 174.242 43.3643C174.242 43.3057 174.256 43.2441 174.286 43.1797C174.368 43.0098 174.502 42.9248 174.69 42.9248C176.823 42.9248 178.238 42.5615 178.935 41.835C179.316 41.4365 179.506 40.9062 179.506 40.2441V40.1299C179.477 39.4385 179.272 38.8584 178.891 38.3896C178.452 37.8623 177.863 37.5986 177.124 37.5986H173.846V49.5605C173.846 49.6836 173.802 49.7861 173.714 49.8682C173.632 49.9561 173.53 50 173.407 50C173.284 50 173.181 49.9561 173.099 49.8682C173.011 49.7861 172.967 49.6836 172.967 49.5605V37.1592C172.967 37.0361 173.011 36.9336 173.099 36.8516C173.181 36.7637 173.284 36.7197 173.407 36.7197H177.124C178.126 36.7197 178.929 37.0801 179.533 37.8008C180.066 38.4277 180.35 39.1924 180.385 40.0947V40.2617C180.385 41.1523 180.113 41.8818 179.568 42.4502C178.8 43.2412 177.482 43.6836 175.613 43.7773L180.271 49.2793C180.341 49.3672 180.376 49.4639 180.376 49.5693V49.5957C180.365 49.7188 180.312 49.8184 180.218 49.8945C180.136 49.9648 180.042 50 179.937 50ZM192.344 44.709L189.777 38.3369L187.22 44.709H192.344ZM195.174 49.3936C195.197 49.4463 195.209 49.502 195.209 49.5605C195.209 49.6191 195.197 49.6777 195.174 49.7363C195.127 49.8477 195.048 49.9238 194.936 49.9648C194.884 49.9883 194.828 50 194.769 50C194.681 50 194.599 49.9766 194.523 49.9297C194.447 49.877 194.394 49.8096 194.365 49.7275L192.695 45.5791H186.868L185.198 49.7275C185.157 49.8389 185.081 49.918 184.97 49.9648C184.917 49.9883 184.861 50 184.803 50C184.744 50 184.685 49.9883 184.627 49.9648C184.515 49.9238 184.436 49.8477 184.389 49.7363C184.366 49.6777 184.354 49.6191 184.354 49.5605C184.354 49.502 184.366 49.4463 184.389 49.3936L189.373 36.9922C189.408 36.9102 189.464 36.8457 189.54 36.7988C189.61 36.7461 189.689 36.7197 189.777 36.7197C189.871 36.7197 189.953 36.7461 190.023 36.7988C190.099 36.8457 190.155 36.9102 190.19 36.9922L195.174 49.3936ZM200.874 43.9795V49.5605C200.874 49.6836 200.83 49.7861 200.742 49.8682C200.66 49.9561 200.558 50 200.435 50C200.312 50 200.209 49.9561 200.127 49.8682C200.039 49.7861 199.995 49.6836 199.995 49.5605V37.1592C199.995 37.0361 200.039 36.9336 200.127 36.8516C200.209 36.7637 200.312 36.7197 200.435 36.7197H204.144C205.04 36.7197 205.805 37.0742 206.438 37.7832C207.071 38.4922 207.387 39.3477 207.387 40.3496C207.387 41.3516 207.071 42.207 206.438 42.916C205.805 43.625 205.04 43.9795 204.144 43.9795H200.874ZM204.144 43.1006C204.8 43.1006 205.357 42.834 205.814 42.3008C206.277 41.7617 206.508 41.1113 206.508 40.3496C206.508 39.5938 206.277 38.9463 205.814 38.4072C205.357 37.8682 204.8 37.5986 204.144 37.5986H200.874V43.1006H204.144ZM221.332 36.7197C221.449 36.7197 221.551 36.7637 221.639 36.8516C221.727 36.9336 221.771 37.0361 221.771 37.1592V49.5605C221.771 49.6836 221.727 49.7891 221.639 49.877C221.551 49.959 221.449 50 221.332 50C221.209 50 221.106 49.959 221.024 49.877C220.936 49.7891 220.892 49.6836 220.892 49.5605V43.7773H213.281V49.5605C213.281 49.6836 213.237 49.7891 213.149 49.877C213.067 49.959 212.964 50 212.841 50C212.718 50 212.616 49.959 212.534 49.877C212.446 49.7891 212.402 49.6836 212.402 49.5605V37.1592C212.402 37.0361 212.446 36.9336 212.534 36.8516C212.616 36.7637 212.718 36.7197 212.841 36.7197C212.964 36.7197 213.067 36.7637 213.149 36.8516C213.237 36.9336 213.281 37.0361 213.281 37.1592V42.9072H220.892V37.1592C220.892 37.0361 220.936 36.9336 221.024 36.8516C221.106 36.7637 221.209 36.7197 221.332 36.7197ZM234.986 36.7637C235.092 36.8164 235.165 36.9014 235.206 37.0186C235.224 37.0654 235.232 37.1152 235.232 37.168C235.232 37.2266 235.218 37.2881 235.188 37.3525L231.312 45.3506V49.5605C231.312 49.6836 231.269 49.7861 231.181 49.8682C231.093 49.9561 230.99 50 230.873 50C230.75 50 230.645 49.9561 230.557 49.8682C230.475 49.7861 230.434 49.6836 230.434 49.5605V45.3506L226.558 37.3525C226.528 37.2881 226.514 37.2266 226.514 37.168C226.514 37.1152 226.522 37.0654 226.54 37.0186C226.581 36.9014 226.654 36.8164 226.76 36.7637C226.824 36.7344 226.886 36.7197 226.944 36.7197C226.997 36.7197 227.047 36.7285 227.094 36.7461C227.211 36.7871 227.296 36.8604 227.349 36.9658L230.873 44.2432L234.397 36.9658C234.45 36.8604 234.535 36.7871 234.652 36.7461C234.699 36.7285 234.749 36.7197 234.802 36.7197C234.86 36.7197 234.922 36.7344 234.986 36.7637Z" fill="#2D2E2F"/>
</svg>
