<svg width="40" height="40" viewBox="0 0 40 40" fill="none" xmlns="http://www.w3.org/2000/svg">
<path fill-rule="evenodd" clip-rule="evenodd" d="M20 40C31.0457 40 40 31.0457 40 20C40 8.9543 31.0457 0 20 0C8.9543 0 0 8.9543 0 20C0 31.0457 8.9543 40 20 40Z" fill="#E1E1E1"/>
<path d="M10 13.5L16.913 17.417C19.4616 18.861 20.5384 18.861 23.087 17.417L30 13.5" stroke="#2D2E2F" stroke-width="1.5" stroke-linejoin="round"/>
<path d="M10.0158 20.9756C10.0811 24.0412 10.1138 25.5739 11.245 26.7094C12.3761 27.8448 13.9503 27.8843 17.0988 27.9634C19.0393 28.0122 20.9607 28.0122 22.9012 27.9634C26.0497 27.8843 27.6239 27.8448 28.7551 26.7094C29.8862 25.5739 29.9189 24.0412 29.9842 20.9756C30.0053 19.9899 30.0053 19.0101 29.9842 18.0244C29.9189 14.9589 29.8862 13.4261 28.7551 12.2907C27.6239 11.1552 26.0497 11.1157 22.9012 11.0366C20.9607 10.9878 19.0393 10.9878 17.0988 11.0366C13.9503 11.1157 12.3761 11.1552 11.245 12.2907C10.1138 13.4261 10.0811 14.9589 10.0158 18.0244C9.99474 19.0101 9.99475 19.9899 10.0158 20.9756Z" stroke="#2D2E2F" stroke-width="1.5" stroke-linejoin="round"/>
</svg>
