<svg width="60" height="60" viewBox="0 0 60 60" fill="none" xmlns="http://www.w3.org/2000/svg">
<g filter="url(#filter0_d_0_49)">
<path fill-rule="evenodd" clip-rule="evenodd" d="M30 48C41.0457 48 50 39.0457 50 28C50 16.9543 41.0457 8 30 8C18.9543 8 10 16.9543 10 28C10 39.0457 18.9543 48 30 48Z" fill="white"/>
</g>
<path fill-rule="evenodd" clip-rule="evenodd" d="M36.231 23.3452C36.231 23.1776 36.231 23.3452 36.231 23.3452C35.378 22.5076 34.3543 22.1726 33.3307 22.3401C34.3543 22.1726 34.8661 21.8376 35.0367 21.67C35.0367 21.5025 35.0367 21.335 34.8661 21.335C34.3543 21.335 33.8425 21.5025 33.5013 21.67C34.0131 21.335 34.1837 21.1675 34.1837 21C33.6719 21 33.1601 21.335 32.4777 21.8376C32.6483 21.5025 32.8189 21.335 32.6483 21.1675C32.3071 21.335 32.1365 21.5025 31.9659 21.8376C31.4541 22.3401 31.1129 22.6751 30.9423 23.1776C30.2598 24.3502 29.748 25.3553 29.4068 26.5279H29.2362C28.895 26.0253 28.3832 25.5228 27.7008 25.1878C27.0184 24.6852 26.1654 24.3502 25.1417 23.8477C24.1181 23.3452 23.0945 22.8426 21.9003 22.5076C21.9003 23.6802 22.4121 24.6852 23.6063 25.3553C23.2651 25.3553 22.7533 25.3553 22.4121 25.5228C22.4121 26.5279 23.2651 27.3654 24.8005 27.7004C24.2887 27.7004 23.7769 27.8679 23.2651 28.203C23.7769 29.208 24.6299 29.5431 25.9948 29.5431C25.8241 29.7106 25.4829 29.8781 25.4829 29.8781C25.3123 30.0456 25.1417 30.3806 25.3123 30.7156C25.6535 31.2182 25.9948 31.3857 26.8478 31.3857C25.6535 32.5583 24.1181 33.2283 22.4121 33.0608C21.3885 33.0608 20.1942 32.5583 19 31.5532C20.1942 33.2283 21.9003 34.5684 23.9475 35.4059C26.336 36.076 28.7244 36.2435 30.9423 35.5735C33.1601 34.9034 35.2073 33.5633 36.7428 31.7207C37.4252 30.7156 37.937 29.7106 38.1076 28.7055C39.3018 28.7055 40.1549 28.3705 40.6667 27.7004C40.3255 27.8679 39.4724 27.8679 38.2782 27.5329C39.4724 27.3654 40.3255 27.0304 40.4961 26.3603C39.643 26.6954 38.79 26.6954 37.937 26.3603C37.7664 25.1878 37.2546 24.1827 36.231 23.3452Z" fill="#2D2E2F"/>
<defs>
<filter id="filter0_d_0_49" x="0" y="0" width="60" height="60" filterUnits="userSpaceOnUse" color-interpolation-filters="sRGB">
<feFlood flood-opacity="0" result="BackgroundImageFix"/>
<feColorMatrix in="SourceAlpha" type="matrix" values="0 0 0 0 0 0 0 0 0 0 0 0 0 0 0 0 0 0 127 0" result="hardAlpha"/>
<feOffset dy="2"/>
<feGaussianBlur stdDeviation="5"/>
<feColorMatrix type="matrix" values="0 0 0 0 0 0 0 0 0 0 0 0 0 0 0 0 0 0 0.1 0"/>
<feBlend mode="normal" in2="BackgroundImageFix" result="effect1_dropShadow_0_49"/>
<feBlend mode="normal" in="SourceGraphic" in2="effect1_dropShadow_0_49" result="shape"/>
</filter>
</defs>
</svg>
